<?xml version="1.0" encoding="UTF-8" standalone="no"?>
<!DOCTYPE svg PUBLIC "-//W3C//DTD SVG 1.1//EN" "http://www.w3.org/Graphics/SVG/1.1/DTD/svg11.dtd">
<svg version="1.1" xmlns="http://www.w3.org/2000/svg" xmlns:xlink="http://www.w3.org/1999/xlink" preserveAspectRatio="xMidYMid meet" viewBox="0 0 512 512" width="512" height="512"><defs><path d="M384 0C454.69 0 512 57.31 512 128C512 204.8 512 307.2 512 384C512 454.69 454.69 512 384 512C307.2 512 204.8 512 128 512C57.31 512 0 454.69 0 384C0 307.2 0 204.8 0 128C0 57.31 57.31 0 128 0C204.8 0 307.2 0 384 0Z" id="d1zxKzppcy"></path><path d="M100.05 134L100.05 134L100.05 134.86L100.05 134.86L100.05 134Z" id="a4Eq2ymRoU"></path><path d="M438.77 257.72L439.62 257.72L439.62 258.57L438.77 258.57L438.77 257.72Z" id="c8TFZ43ex1"></path><path d="M85.54 111.82L85.54 111.82L85.54 112.67L85.54 112.67L85.54 111.82Z" id="d2PhJ40BJy"></path><path d="M106 106L406 106L406 406L106 406L106 106Z" id="eOFI94WWe"></path><path d="M406.42 106.07L106.02 406.27L106.22 105.8L406.42 106.07Z" id="b7vv8M2u5"></path></defs><g><g><g><use xlink:href="#d1zxKzppcy" opacity="1" fill="#000000" fill-opacity="1"></use></g><g><use xlink:href="#a4Eq2ymRoU" opacity="1" fill="#8a5a3f" fill-opacity="1"></use></g><g><use xlink:href="#c8TFZ43ex1" opacity="1" fill="#8a5a3f" fill-opacity="1"></use></g><g><use xlink:href="#d2PhJ40BJy" opacity="1" fill="#8a5a3f" fill-opacity="1"></use></g><g><use xlink:href="#eOFI94WWe" opacity="1" fill="#efefef" fill-opacity="1"></use></g><g><use xlink:href="#b7vv8M2u5" opacity="1" fill="#ffffff" fill-opacity="1"></use></g></g></g></svg>